<?xml version="1.0" encoding="utf-8"?>
<!-- Generator: Adobe Illustrator 26.2.1, SVG Export Plug-In . SVG Version: 6.00 Build 0)  -->
<svg version="1.1" id="Layer_1" xmlns="http://www.w3.org/2000/svg" xmlns:xlink="http://www.w3.org/1999/xlink" x="0px" y="0px"
	 viewBox="0 0 326.5 84.4" enable-background="new 0 0 326.5 84.4" xml:space="preserve">
<g>
	<path fill="#00ACCD" d="M31.9,22.3c-1.2-3.3-4.2-6.2-13-6.2c-4.9,0-9.8,1.2-9.8,4.6c0,1.6,0.9,3.3,8.3,4.2l8.8,1.3
		c8.3,1.3,13.2,4.5,13.2,10.7c0,8.8-8.4,12-18.2,12C5.2,49,1.4,41.1,0.5,38.3l7-2.2c1.3,2.7,4.1,6.6,13.9,6.6
		c5.9,0,10.8-1.9,10.8-5.1c0-2.4-2.8-4-8-4.6l-8.9-1.2C6.7,30.6,1.9,26.9,1.9,21.2c0-11.1,14.4-11.1,17.3-11.1
		c15.9,0,18.7,7.4,19.6,9.9L31.9,22.3L31.9,22.3z M45.5,11h33.2v6.2h-26v8.6h22.4v6.2H52.8v9.8h26.6v6.2H45.5V11L45.5,11z M85.2,11
		h33.2v6.2h-26v8.6h22.4v6.2H92.4v9.8H119v6.2H85.2V11L85.2,11z M124.8,11h7.2v30.6h26.8v6.4h-34.1V11L124.8,11z M164.4,11h33.2v6.2
		h-26v8.6H194v6.2h-22.4v9.8h26.6v6.2h-33.8V11L164.4,11z M218.7,33.2L200.6,11h8.9l12.8,15.7L235.1,11h8.9l-18.1,22.2v14.8h-7.2
		V33.2L218.7,33.2z M4.3,56.5h3.3v16.8H4.3V56.5L4.3,56.5z M11.8,56.5h3.5l11.3,12.2V56.5h3.2v16.8h-3L14.9,60.8v12.6h-3.1V56.5
		L11.8,56.5z M39.7,59.4h-7.5v-2.8h18.3v2.8h-7.5v14h-3.3V59.4L39.7,59.4z M52.9,56.5H68v2.8H56.2v3.9h10.2v2.8H56.2v4.4h12.1v2.8
		H52.9V56.5L52.9,56.5z M71,56.5h10.1c4,0,6.9,0.9,6.9,5c0,3.1-2.2,4.8-4.7,5l5.2,6.9h-4.1l-4.9-6.6h-5.2v6.6H71V56.5L71,56.5z
		 M80.6,64c2.7,0,4.1-0.4,4.1-2.4c0-2-1.4-2.4-4.1-2.4h-6.3V64H80.6L80.6,64z M91.5,56.5H95l11.3,12.2V56.5h3.1v16.8h-3L94.7,60.8
		v12.6h-3.1V56.5L91.5,56.5z M119.9,56.5h3.7l8.2,16.8h-3.5l-1.8-3.9h-9.7l-1.8,3.9h-3.5L119.9,56.5L119.9,56.5z M125.3,66.7
		l-3.5-7.5l-3.5,7.5H125.3L125.3,66.7z M137,59.4h-7.5v-2.8h18.3v2.8h-7.5v14H137V59.4L137,59.4z M150.5,56.5h3.3v16.8h-3.3V56.5
		L150.5,56.5z M166.9,56.1c7.4,0,10,4.4,10,9c0,3.5-2.1,8.7-10,8.7c-8,0-10-5.2-10-8.7C156.9,60.5,159.5,56.1,166.9,56.1
		 M173.7,64.9c0-4.1-2.9-6-6.7-6c-3.8,0-6.7,1.9-6.7,6c0,4.8,3.6,6.1,6.7,6.1C170.1,71,173.7,69.7,173.7,64.9 M179.9,56.5h3.5
		l11.3,12.2V56.5h3.1v16.8h-3L183,60.8v12.6h-3.1V56.5L179.9,56.5z M208.2,56.5h3.8l8.2,16.8h-3.5l-1.8-3.9h-9.7l-1.8,3.9h-3.5
		L208.2,56.5L208.2,56.5z M213.6,66.7l-3.5-7.5l-3.5,7.5H213.6L213.6,66.7z M222.3,56.5h3.3v13.9h12.2v2.9h-15.5V56.5L222.3,56.5z
		 M324.1,46.6l-0.1-0.4v-0.3v-0.4l-0.4-0.8l-0.2-0.5l-0.3-0.4l-0.3-0.4l-0.3-0.3l-0.3-0.2l-0.3-0.1l-0.4-0.1l-0.4,0.2l-0.1,0.3
		l-0.1,0.3l-0.1,0.3l0.1,0.5l0.3,0.3h0.3l0.4,0.4l0.1,0.4v0.4l0.1,0.4l0.6,0.2l0.6,0.1l0.4,0.7l0.2,0.3l0.3,0.1l0.1-0.4v-0.3
		L324.1,46.6L324.1,46.6z M321.1,51.9l-0.1-1.2l-0.2-1.1l-0.2-1.1l-0.4,0.4l-0.3,0.5l-0.3,0.6l-0.2,0.6l-0.6,1l-0.4,0.1l-0.2-0.3
		l-0.2-0.3l-0.3-0.4l-0.2-0.5l-0.2-0.6l-0.3-0.4l-0.5,0.1l-0.6,0.4l-0.4,0.2l-0.4,0.3l-0.4,0.2l-0.3,0.2l-0.4,0.2l-0.4,0.2l-0.4,0.3
		l-0.5,0.4l-0.3,0.4l-0.6,0.3l-0.6,0.3l-0.5,0.4l-0.5,0.4l-0.6,0.4l-0.5,0.4l-0.6,0.4l-0.6,0.3l-0.4,0.2l-0.4,0.2l-0.4,0.3l-0.2,0.4
		V56l0.1,0.4l0.1,0.4l-0.1,0.6l-0.2,0.4l-0.4,0.2l-0.1,0.2l-0.1,0.2l-0.1,0.4l-0.2,0.7v0.6l0.4,0.3l0.5,0.1l0.5,0.1l0.6-0.1l0.3-0.1
		l0.4-0.1l0.4-0.2l0.3-0.2l0.4-0.2l0.3-0.2l0.4-0.2l0.4,0h0.4l0.4,0.4l0.4,0.5l0.3,0.4l0.2,0.5l0.3,0.5l0.2,0.5l0.3,0.5l0.4,0.4
		l0.4,0.2l0.5,0.1l0.4-0.4l0.4-0.6l0.6-0.4l0.6-0.4l0.5-0.4l0.5-0.4l0.6-0.4l0.5-0.4l0.5-0.4l0.6-0.4l0.5-0.5l0.4-0.5l0.1-0.1
		l0.4-0.7l0.2-0.9l0.1-1l0.1-0.9l0-0.9l0-0.9L321.1,51.9L321.1,51.9z M314.4,47l0.4-0.4l0.4-0.2l0.1-0.3l-0.4-0.3h-0.4h-0.5
		l-0.4,0.2l-0.1,0.3l0.4,0.4L314.4,47L314.4,47z M313.8,63.9l-0.4,0l-0.2,0.3l0.3,0.4l0.4,0.2l0.3-0.1l0.1-0.4l-0.1-0.6L313.8,63.9
		L313.8,63.9z M304.6,76.7l-0.2-0.2l-0.3-0.6l-0.4-0.5l-0.3-0.5l-0.3-0.4l-0.3-0.3h-0.3l-0.5,0.4l-0.3,0.3l-0.3,0.2l-0.4,0.2
		l-0.3,0.2l-0.5-0.4l-0.3-0.1l-0.3-0.1h-0.3l-0.3,0.1l-0.3,0.1l-0.3,0.3l-0.4,0.1l-0.5-0.5l-0.5-0.2l-0.5,0.1l-0.4,0.3l-0.4,0.2
		l-0.4,0.2H295l-0.3-0.1h-0.3l-0.3-0.1l-0.3-0.4l-0.2-0.3l-0.5-0.3h-0.6l-0.6,0.2l-0.8,0.4l-0.6,0.1l-0.6-0.1l-0.6-0.2l-0.6-0.3
		l-0.6-0.4l-0.6-0.5l-0.5-0.6l-0.3-0.2l-0.3-0.1l-0.3,0.1l-0.3,0.2l-0.4,0.4l-0.4,0.4l-0.4,0.3l-0.4,0.3l-0.6,0.1l-0.5-0.1l-0.6-0.1
		l-0.5,0.3l-0.4,0.3l-0.4,0.2l-0.4,0.1l-0.4,0.2l-0.3,0.3l-0.3,0.4l-0.3,0.4l-0.3,0.3L279,77l-0.4,0.2l-0.3,0.1l-0.4-0.1l-0.3-0.2
		l-0.3-0.3l-0.3-0.3l-0.3-0.3l-0.3-0.4l-0.3-0.4l-0.2-0.4l-0.3-0.4l-0.3-0.3l-0.3-0.1h-0.3l-0.3,0.1l-0.4,0.1l-0.3,0.3l-0.4,0.2
		l-0.3,0.2l-0.2,0.4h-0.6l-0.4,0.2l-0.2,0.6l-0.1,0.9h-0.3H271l-0.3,0l-0.3-0.1l-0.3-0.1l-0.3-0.1h-0.3l-0.3,0.1v-0.3l-0.3-0.1
		l-0.1,0.4l-0.1,0.4l-0.4,0.2l-0.3-0.2l-0.6-0.3l-0.4,0.3l-0.2,0.3l-0.1,0.3c-2.6-1.3-5.2-2.9-7.5-4.8c-6.6-5.3-11.3-12.7-13.5-20.8
		c2.2,0.7,4.4,1.5,6.7,2.3c2.8,1,5.8,2.1,9.2,3.2v0l0,0.5l-0.1,0.8l0,1.2l0.4,0.7l0.5,0.7l0.4,0.7l0.5,0.7l0.5,0.7l0.4,0.7l0.4,0.8
		l0.4,0.7l0.4,0.7l0.3,0.8l0.3,0.8l0.3,0.8l0,0l0.4,0.5l0.3,0.1l0.3,0.1l0.4,0.1l0.4,0.1l0.4,0.1l0.3,0.1l-0.1-0.6l-0.1-0.5l0,0
		l-0.2-0.5l-0.2-0.5l-0.3-0.3l-0.3-0.4l-0.2-1.4l-0.1-1.4l0.3-1.4l0.7-1.2l0.3-0.4l0.4-0.3l0.3-0.3l0.3-0.2l0.3-0.3l0.3-0.3
		c5.3,1.2,11.6,2.1,19.4,2.7c0.1,0.8,0.4,3.4,0.4,3.4l14.7-7.9l-12.3-3.6l0-0.1l0.1-0.4l0.2-0.4l0.4-0.5l0.4-0.5l0.4-0.6l0.3-0.6
		l0.2-1l0.1-1v-1l-0.1-0.9c1.2,0.1,2.4,0.1,3.7,0.1c0.1,0.9,0.4,3.7,0.4,3.7l13.7-7.4l0,0.1l0.2,0.3l0.4,0.4l0.2-0.5l0.1-0.3
		l-0.1-0.3l0-0.1l0.1,0l-0.1,0l-0.1-0.4l-0.1-0.6l-0.2-0.5l-0.3-0.3l-0.1-0.4l-0.4-0.3l-0.3,0.3l-0.1,0.4l0.4,1l0.2,0.5l-14.6-4.3
		l0-0.1l0.2-0.5l0.1-0.4l0.1-0.3l0.4-0.4l0.2-0.6l0.1-0.6v-0.5l-0.2-0.3l-0.3-0.1l-0.4-0.1l-0.4-0.1l-0.4-0.2l-0.4-0.3l-0.4-0.4
		l-0.4-0.4l-0.4-0.4l-0.1-0.1l-0.3-0.3l-0.4-0.4l-0.4-0.4l-0.3-0.1l-0.4,0.3l-0.3,0.4l-0.3,0.4l-0.2,0.2l-0.3,0.2l-0.6,0.1l-0.3-0.1
		l-0.5-0.2l0,0l-0.3-0.1l-0.4-0.4l-0.2-0.6v-0.6c2.6,0.2,5.3,0.3,8.2,0.4l0.2,0.8l0.1,0.4l0.1,0.5l0.2,1l0.2,0.9l0.3,0.9L300,37
		l0.2-0.5l0.1-0.3l0.2-1l0.1-1l0.1-0.7l0-0.3l0.3-0.9l0,0c0.9,0,1.8,0,2.7,0l0.3,0.2l0.4,0.6l0.1,0.3l0.2,0.9l0.3,1.3l0.2,1.3
		l0.2,1.4h0.4l0.4,0.7l0.3,0.5l0.3,0.5l0.4,0.4l0.1,0.1l0.1,0.2l0.1-0.2l0.1-0.2l-0.2-1l-0.2-0.8l-0.1-0.9l-0.1-0.9l0.4,0.2l0.5,0.2
		l0.4,0.1h0.5v-1.1l0.1-1.1l0-0.1c3.9-2.1,12.7-6.9,12.8-6.9c1.7,4.4,2.6,9.1,2.6,14.1C324.5,56.9,316.5,69.8,304.6,76.7 M295.9,42
		l0.1-0.1l0.3-0.9l0.1-0.4l0.1-0.3l0.3-0.6l0.1-0.2c0.1,0.6,0.2,1.9,0.3,2.5C296.8,42,296.3,42,295.9,42 M266.3,36.6l-0.5-0.4
		l-0.3-0.2l-0.5-0.4l-0.3-0.2l-0.3-0.1l-0.3-0.1l-0.4,0l-0.3,0l-0.4,0.1l-0.3,0.2l-0.3,0.2l-0.3,0.3l-0.4,0l-0.1-0.4l-0.1-0.3
		l-0.6,0.2l-0.5,0.4h-0.5l-0.4-0.4l-0.4-0.6l-0.1-0.7l0.1-0.6l0-0.1l0-0.2l0.2-0.4l-0.1-0.3v-0.3l-0.1-0.4l-0.5,0.1l-0.3-0.3v-0.7
		l0.2-0.7l0.1-0.7l-0.1-0.7l-0.3-0.2l-0.3-0.1l-0.3,0.2l-0.3,0.2l-0.4,0.3l-0.4,0.1l-0.4,0.1l-0.3,0.3l-0.1-0.4v-0.5v-0.4l0.1-0.3
		l0.1-0.5l0-0.5l0.1-0.5l0.1-0.3l0.3-0.2l0.3-0.1l0,0l0.4-0.1h0.4l0.4-0.1l0.4-0.1l0.4-0.1l0.1-0.1c0.1,0,0.2,0.1,0.3,0.1l0.1,0.2
		l0,0.1l0.2,0.3l0.2,0.4l0.2,0.4l0.2,0.3h0.3l0.3-0.2l0.3-0.4v-0.4l0.1-0.1c4.2,1.3,9.2,2.6,15.3,3.6l-0.4,1.2l-0.2,0.6l-0.3,0.6
		l-0.2,0.7v0.2v0.5l0.2,0.5l0.3,0.4l0.2,0.4l0.2,0.5l0.1,0.5l0,0.5l0.1,0.4l0.1,0.4l0.4,0.5l0.4,0.5l0.4,0.4l0.4,0.3l0.5,0.3
		l0.5,0.2l0.5,0.2l0.5,0.1l0.4,0.1l0.3-0.1l0.3-0.1l0.3-0.2l0.3-0.2l0.3-0.3l0.3-0.2l0.3-0.3l0.3-0.1l0.4,0.1l0.3,0.3l0.2,0.4
		l0.1,0.4v0.4v0.4v0V41l0,0.1c-6.2-0.7-11.3-1.6-15.7-2.7l-0.1-0.1l-0.4-0.3l-0.3-0.2l-0.3-0.2l-0.4-0.3l-0.4-0.5L266.3,36.6
		L266.3,36.6z M253.1,33.7c-2.4-0.9-4.8-1.7-7.1-2.4c0.8-3,2-5.8,3.5-8.5c0.2,0.1,0.6,0.2,0.9,0.3v0h0.1c0.1,0,0.1,0,0.2,0.1
		l0.1,0.7l-0.1,0.7l-0.1,0.7l0.1,0.8v0.3l0,0.1l0.1,0.3l0.1,0.5l0.3,0.7l0.2,0.8l0.3,0.7L252,30l0.1-0.5l0.1-0.5v0.4v0.4l0.2,0.6
		l0.4,0.5l0.3,0.4l0.4,0.5l0.4,0.4l0.4,0.4l0.4,0.4l0.4,0.4l0.5,0.2l0.2,0.1l0.3,0.3l0.4,0l0.4,0.2l0.4,0.2l0.4,0.3l0.4,0.3l0.5,0.4
		l0.2,0.2C256.6,34.9,254.8,34.3,253.1,33.7 M310.4,24.6l-0.1-0.5l-0.2-0.5l-0.2-0.4l-0.3-0.4l-0.3-0.3l-0.3-0.3l-0.3-0.4l-0.2-0.5
		v-0.6l0.1-0.3h0.3l0.4,0.2l0.3,0.3l0.3,0.4l0.4,0.3l0.3,0.3h0.4l-0.1-0.9l-0.4-0.7l-0.4-0.6l-0.4-0.8l-0.1-0.3l0.1-0.5l0.2-0.4
		l0-0.4l0.1-0.4l0.1-0.4l0.3-0.3l0.3-0.5l-0.1-0.4l-0.2-0.5l-0.2-0.6l-0.2-0.5l-0.3-0.6l-0.4-0.7l-0.4-0.4l0.6-0.3l-1.2-0.3
		l-0.4-0.4l-0.3-0.1l-0.3,0l-0.2-0.3l0.1-0.4l0.3-0.4l0.3-0.2l0.3-0.1c6.2,4.6,11.1,10.9,13.8,18.2C321.8,28,315.1,26,310.4,24.6
		 M272.7,54.5l0.1-0.4l0.4-0.2h0.6l0.5-0.3l0.3-0.4l0.2-0.5l0-0.6v-0.5l0-0.6l0-0.6l0.3-0.7l0.2-0.6l0.3-0.7l0.3-0.6l0.1-0.1
		l0.1-0.2l0.2-0.4l0.2-0.4l0.2-0.4v-0.1c2.7,0.4,5.6,0.8,8.7,1.1l0,0.2l0,0.2l-0.1,0.7l-0.2,1l-0.2,0.7l-0.2,0.7l-0.1,0.7v0.8
		l0.2,0.7l0.2,0.6l0.2,0.6l0.2,0.7l0.1,1.2l0,0.4C280.7,55.9,276.5,55.2,272.7,54.5 M253.1,48.8c-2.9-1-5.6-2-8.4-2.8
		c-0.1-1.3-0.2-2.5-0.2-3.8c0-1.7,0.1-3.4,0.4-5.1c2.6,0.8,5.1,1.7,7.7,2.6c1.1,0.4,2.2,0.8,3.3,1.2l-0.3,0.3l-0.4,0.4l-0.3,0.4
		l-0.1,0.5v0.6l0.1,0.6l0.2,0.6l0.2,0.4l0.2,0.5l0.2,0.4l0.3,0.4l0.2-0.3l0.1-0.3l-0.1,0.4l0.1,0.4l0.1,0.4l0.1,0.3l0.2,0.7l0.1,0.3
		l0.1,0.3l0.2,0.6l0.4,0.6l0.3,0.6l0.4,0.6l0.1,0.2C256.5,50,254.8,49.4,253.1,48.8 M287,25.6l-0.1-0.6l-0.1-0.7l-0.3,0.1h-0.4
		l-0.3-0.2l-0.1-0.3v-0.4l-0.2-0.5l-0.3-0.4l-0.2-0.3l-0.3-0.4l-0.2-0.3l-0.5-0.3l-0.3-0.1l-0.4,0.2l-0.5,0.5l-0.4,0.4l-0.5,0.5
		l-0.5,0.4l-0.6-0.1l-0.3-0.1l-0.6-0.1l-0.6,0.1l-0.5,0.3l-0.7,0.8l-0.2,0.4c-5.6-0.8-10.1-1.9-14.1-3l0-0.2l0.3-0.3l0.4-0.1h0.4
		l0.3-0.3l0.3-0.6l0.4-0.4l0.4-0.4l0.4-0.6v-0.3l0.2-0.4l0.1,0.5l0.2,0.4l0.5,0.1l0.3-0.1l0.5-0.2l0.5-0.2l0.4-0.4l0.1-0.4l-0.1-0.5
		l-0.1-0.3h0.3L270,17l0.3,0.1l0.3,0.1h0.5l0.5-0.3l0.3-0.1l-0.1-0.5l-0.2-1.4l-0.1-0.6l0-0.1c1.6,0.3,3.3,0.6,5.1,0.9l-0.2,0.3
		l-0.2,0.3l-0.3,0.3l-0.3,0.3l-0.2,0.3l-0.2,0.4l-0.1,0.7l-0.1,0.8l0.1,0.9V20l0.1,0.3l0.3,0.5l0,0.4l0.4,0l0.4,0.1h0.4l0.4-0.2
		l0.1-0.3l0.5-0.5l0.4-0.6l0.3-0.7l0.2-0.7l0.4-0.1l0.4-0.4l0.4-0.4l0.4-0.2l0.5,0.6l0.3,0.4l0.3,0.4l0.1,0.7l0.4,0.3l0.4-0.1
		l0.3,0.2l0.2,0.5l0.3,0.3l0.4,0.2l0.4,0.1l0.1-0.4l0.3-0.3l0.3-0.2l0.3,0.3l0.4,0.5l0.2,0.4l0.1,0.5l0.2,0.4l0.3,0.1l0.4-0.1
		l0.4-0.1l0.4,1.2v1l0.3,0.4l0.3,0.3l0.4-0.1l-0.1-0.4h0.5l0.4,0.1l0.5,0.1l0.5,0.1l0.5,0.1h0.5l0.4-0.1l0.4-0.3l0.1,0.7l0.1,0.8
		l0.1,0.4C290.1,25.8,288.5,25.7,287,25.6 M289.9,2.9l-0.4,0.3l-0.3,0.2l-0.4,0.2l-0.4,0.2l-0.4,0.1L287.8,4l-0.4,0.1L287,4.3
		l-0.4,0.3l-0.4,0.4L286,5.3l-0.4,0.1L285.2,6l-0.4-0.5l-0.4-0.7L284,4.2l-0.5-0.3l-0.4-0.1l-0.3-0.3l-0.3-0.3l-0.3-0.4L281.9,3
		l-0.3,0.1l-0.3,0.2l-0.3,0.3L280.6,4l-0.3,0.2l-0.3,0.4l-0.2,0.4l-0.1,0.6l-0.2,0.5l-0.2,0.5L279.2,7l-0.3,0.4l-0.2,0.3L278.4,8
		l-0.4,0.2l-0.2,0.4l-0.2,0.4l0.1,0.2c-1.2-0.2-2.5-0.4-3.7-0.6l0-0.3l-0.2-0.5l-0.3-0.4L273.3,7l-0.4-0.3l-0.3-0.4L272.3,6
		l-0.4-0.3l-0.4-0.2l-0.4-0.3l-0.5,0l-0.4,0.2l-0.4,0.5l-0.4,0.5l-0.3,0.4L269,7.2h-0.3l-0.3-0.4l-0.3-0.2L268,6.9L267.7,7h-0.4
		l-0.2-0.6L267,6.2c5.4-2.6,11.4-4,17.5-4c1.9,0,3.8,0.1,5.6,0.4L289.9,2.9L289.9,2.9z M281.7,9.6c-0.4,0-0.9-0.1-1.3-0.2l0-0.1
		l0.1-0.5l0.1-0.5L281,8l0.4,0.3l0.3,0.6l0.2,0.7L281.7,9.6L281.7,9.6z M284.5,0.5c-7.4,0-14.7,2-21.1,5.7l-1.6,1l1.8,0.5
		c9.1,2.6,19,4.1,31.1,4.7l0.9,0c0,0-0.2-1.9-0.3-2.8c1.6,0.5,7.4,2.2,9.9,2.9c-2.3,1.2-7.6,4.1-9.1,4.9c-0.1-0.7-0.2-2.2-0.2-2.2
		l-0.7,0c-18-0.8-28.5-3.6-35.6-6l-0.4-0.1l-0.3,0.3c-3.1,2.4-5.8,5.2-8,8.3l-0.6,0.9l2.4,0.9c10.6,3.9,23.8,8.7,54.6,8.6h0.9
		c0,0-0.2-1.7-0.3-2.5c1.6,0.5,7.4,2.2,9.9,2.9c-2.3,1.2-7.6,4.1-9.1,4.9c-0.1-0.9-0.3-2.5-0.3-2.5l-0.7,0
		c-30.8,0.1-43.9-4.7-54.5-8.5l-4.4-1.6l-0.3,0.6c-1.9,3.2-3.3,6.7-4.2,10.3l-0.2,0.8l0.8,0.2c2.6,0.8,5.1,1.7,7.8,2.7
		c9.4,3.4,21.1,7.7,45.5,8.5l0.9,0c0,0-0.2-1.6-0.2-2.3c1.6,0.5,7.4,2.2,9.9,2.9c-2.3,1.2-7.6,4.1-9.1,4.9c-0.1-0.9-0.3-2.7-0.3-2.7
		l-0.7,0c-24.5-0.8-36.1-5-45.5-8.4c-3-1.1-5.8-2.1-8.8-2.9l-0.9-0.2l-0.1,0.9c-0.3,2.1-0.5,4.2-0.5,6.3c0,1.5,0.1,3,0.2,4.5
		l0.1,0.5l0.5,0.1c3,0.8,5.8,1.9,8.9,3c8.2,3,18.3,6.7,37.2,8.1l1,0.1c0,0-0.2-1.8-0.3-2.6c1.6,0.5,7.4,2.2,9.9,2.9
		c-2.3,1.2-7.6,4.1-9.1,4.9c-0.1-0.8-0.2-2.3-0.2-2.3l-0.7-0.1c-19-1.3-28.7-4.9-37.2-8c-2.8-1-5.5-2-8.2-2.8l-1.3-0.4l0.3,1.3
		c2.1,9.1,7.2,17.3,14.4,23.2c7.4,6,16.7,9.2,26.2,9.2c23,0,41.6-18.7,41.6-41.6C326.1,19.1,307.5,0.5,284.5,0.5 M314.7,43.2
		l0.4,0.4l0.4,0.4l0.5-0.1l0.5-0.3l0.1,0.6v0.4l0.1,0.3l0.3,0.2l0.5-0.5l0.2-0.5l0.2-0.9v-0.9l-0.1-0.8l-0.1-0.9l0,0l-0.1-0.4
		l-0.3-0.7l-0.2,0.3l-0.1-0.6l-0.1-0.7l-0.2-0.5h-0.5l-0.3,0.3l-0.2,0.4l-0.1,0.5l-0.1,0.6l-0.4,0.1v0.3l-0.4,0.4l-0.1,0.1l-0.4,0.4
		l-0.3,0.5l-0.3,0.6l-0.2,0.4l0.5,0.4L314.7,43.2L314.7,43.2z"/>
	<path fill="#00ACCD" d="M321.4,69.7c2,0,3.7,1.6,3.7,3.7c0,2.1-1.7,3.7-3.7,3.7c-2,0-3.7-1.6-3.7-3.7
		C317.7,71.3,319.4,69.7,321.4,69.7 M321.4,76.5c1.7,0,3-1.4,3-3.2c0-1.8-1.3-3.1-3-3.1c-1.7,0-3.1,1.4-3.1,3.1
		C318.3,75.2,319.7,76.5,321.4,76.5 M320,71.2h1.7c1,0,1.5,0.4,1.5,1.2c0,0.8-0.5,1.1-1.1,1.2l1.2,1.9h-0.7l-1.2-1.9h-0.7v1.9H320
		V71.2L320,71.2z M320.6,73.1h0.7c0.6,0,1.1,0,1.1-0.7c0-0.6-0.5-0.7-0.9-0.7h-0.9V73.1L320.6,73.1z"/>
</g>
</svg>
